<?xml version="1.0" encoding="UTF-8" standalone="no"?>
<svg
   xmlns:dc="http://purl.org/dc/elements/1.1/"
   xmlns:cc="http://creativecommons.org/ns#"
   xmlns:rdf="http://www.w3.org/1999/02/22-rdf-syntax-ns#"
   xmlns:svg="http://www.w3.org/2000/svg"
   xmlns="http://www.w3.org/2000/svg"
   xmlns:sodipodi="http://sodipodi.sourceforge.net/DTD/sodipodi-0.dtd"
   xmlns:inkscape="http://www.inkscape.org/namespaces/inkscape"
   version="1.1"
   x="0px"
   y="0px"
   viewBox="0 0 100 100"
   xml:space="preserve"
   id="svg12"
   sodipodi:docname="signo_virgem.svg"
   width="100"
   height="100"
   inkscape:version="1.0.1 (3bc2e813f5, 2020-09-07, custom)"
   inkscape:export-filename="/home/aug/Desktop/icons/signo_virgem_2x.png"
   inkscape:export-xdpi="192.09"
   inkscape:export-ydpi="192.09"><metadata
     id="metadata18"><rdf:RDF><cc:Work
         rdf:about=""><dc:format>image/svg+xml</dc:format><dc:type
           rdf:resource="http://purl.org/dc/dcmitype/StillImage" /><dc:title></dc:title></cc:Work></rdf:RDF></metadata><defs
     id="defs16" /><sodipodi:namedview
     pagecolor="#ffffff"
     bordercolor="#666666"
     borderopacity="1"
     objecttolerance="10"
     gridtolerance="10"
     guidetolerance="10"
     inkscape:pageopacity="0"
     inkscape:pageshadow="2"
     inkscape:window-width="1920"
     inkscape:window-height="1014"
     id="namedview14"
     showgrid="false"
     inkscape:zoom="5.72"
     inkscape:cx="50"
     inkscape:cy="62.5"
     inkscape:window-x="0"
     inkscape:window-y="0"
     inkscape:window-maximized="1"
     inkscape:current-layer="svg12" /><path
     d="m 67.720703,51.522949 c -1.705078,-0.390137 -3.198242,0.05859 -4.322266,1.299805 -2.833007,3.131836 -2.458984,10.387207 -2.091796,11.472656 0.08691,0.258789 0.277343,0.470703 0.524414,0.585938 0.133789,0.0625 0.27832,0.09375 0.422851,0.09375 0.123047,0 0.247071,-0.02295 0.364258,-0.06836 2.59082,-1.012207 4.179688,-2.413086 5.056641,-3.409668 2.473632,-2.811523 2.787109,-6.170898 2.03125,-8.103515 -0.393555,-1.002442 -1.098633,-1.666993 -1.985352,-1.870606 z m -1.547851,8.652832 c -0.588868,0.669922 -1.572266,1.562012 -3.094727,2.336426 -0.09766,-2.148926 0.126953,-6.548828 1.835937,-8.382324 0.465821,-0.500977 1,-0.745117 1.646485,-0.745117 0.222656,0 0.459961,0.0293 0.71289,0.0874 0.3125,0.07178 0.503907,0.47998 0.570313,0.650879 0.452148,1.155762 0.380859,3.72168 -1.670898,6.052734 z"
     id="path2"
     style="fill:#19bfbf;fill-opacity:1" /><path
     d="M 71.678711,64.744629 C 75.070312,60.889648 76.22168,55.739746 74.611328,51.624023 73.504883,48.799316 71.25,46.943848 68.424805,46.532715 66.838867,46.303711 65.333008,46.410156 63.927734,46.851074 64.167969,39.884277 63.810547,34.824219 62.864258,31.795898 61.898437,28.70459 59.771484,27.388184 58.158203,26.828125 54.515625,25.564941 50.03418,27.020996 46.693359,28.622559 45.907226,27.821289 44.93457,27.207519 43.84082,26.827637 40.241211,25.581543 35.836914,26.981934 32.50293,28.5625 c -0.609375,-1.003418 -1.305665,-1.822754 -2.078125,-2.443848 -1.783204,-1.433105 -3.747071,-1.625 -4.984375,-1.328613 -0.450196,0.107422 -0.767579,0.509766 -0.767579,0.972168 l -0.002,4.398438 h 0.0029 c 0.0088,0.295898 0.151367,0.599609 0.368164,0.793945 0.949219,0.850098 1.607422,1.776367 1.954102,2.751465 1.137695,3.202636 2.274414,10.177246 1.227539,25.215332 -0.01758,0.265625 0.07031,0.527343 0.245117,0.727539 0.175781,0.200683 0.422852,0.322754 0.688477,0.339844 l 5.229492,0.335449 c 0.577148,0.03467 1.024414,-0.379883 1.0625,-0.928711 0.733398,-10.56543 0.546875,-18.465332 -0.572266,-24.107422 2.770508,-1.413086 5.496094,-2.195313 6.563477,-1.828613 0,4.88e-4 0.08398,0.07764 0.178711,0.378906 1.432617,4.584961 0.677734,17.729492 -0.134766,24.9375 -0.0293,0.264648 0.04785,0.530762 0.214844,0.738769 0.166992,0.20752 0.410156,0.340332 0.675781,0.367676 l 5.209961,0.541504 c 0.552734,0.06445 1.036133,-0.337402 1.097656,-0.882812 0.182617,-1.626465 1.714844,-15.77295 0.580078,-24.288575 2.779297,-1.409668 5.431641,-2.157714 6.495118,-1.79248 9.76e-4,4.88e-4 0.08496,0.07764 0.17871,0.378418 1.427735,4.574219 0.677735,17.700683 -0.127929,24.869629 -0.282227,1.968261 -0.25586,3.815918 0.07715,5.51123 -2.428711,0.11084 -5.138672,-0.107422 -8.082031,-0.655761 -0.541992,-0.102051 -1.055664,0.249511 -1.164063,0.784668 l -0.998046,4.939941 c -0.05273,0.262695 0.002,0.535644 0.151367,0.757812 0.15039,0.22168 0.382812,0.374512 0.646484,0.42334 4.808594,0.896973 9.174805,1.057617 13.135742,0.421875 4.6875,4.377442 11.833008,4.439942 12.142578,4.44043 9.77e-4,0 9.77e-4,0 0.002,0 0.550781,0 0.998046,-0.445801 1,-0.99707 l 0.01465,-5.032227 c 0.002,-0.54834 -0.442383,-0.995606 -0.991211,-1.00293 -0.02148,0 -1.676758,-0.03027 -3.553711,-0.57666 1.623047,-1.053222 2.761719,-2.151367 3.489258,-2.978027 z m -6.251953,2.256348 c -0.338867,0.169433 -0.552735,0.515625 -0.552735,0.894043 0,0.378906 0.213868,0.725097 0.551758,0.894531 1.952149,0.978027 4.087891,1.323242 5.305664,1.444336 l -0.0088,3.048339 c -2.074219,-0.168457 -6.896484,-0.909179 -10.101562,-4.163574 -0.19043,-0.192383 -0.447266,-0.29834 -0.712891,-0.29834 -0.05859,0 -0.118164,0.0054 -0.176758,0.01563 -3.579101,0.64209 -7.538086,0.57129 -11.925781,-0.156738 l 0.601563,-2.979004 c 3.227539,0.533203 6.191406,0.678223 8.826171,0.428711 0.296875,-0.02832 0.566407,-0.187988 0.734375,-0.436035 0.166993,-0.247559 0.214844,-0.557617 0.129883,-0.844238 -0.513672,-1.730957 -0.618164,-3.701661 -0.304687,-5.886719 0.02051,-0.19043 2.114258,-19.115723 0.05273,-25.719727 -0.368164,-1.178222 -1.014648,-1.523926 -1.46875,-1.681152 -2.543945,-0.880859 -7.286133,1.501953 -8.680664,2.253418 -0.374023,0.20166 -0.579102,0.616699 -0.513672,1.036133 1.145508,7.259277 0.01172,19.682129 -0.381836,23.480957 l -3.223633,-0.334961 c 0.403321,-4.021973 1.743165,-19.018067 -0.04883,-24.754395 -0.368164,-1.178711 -1.014648,-1.523925 -1.467773,-1.681152 -2.644531,-0.91748 -7.791016,1.768066 -8.795898,2.316406 -0.391602,0.213379 -0.59375,0.65918 -0.498047,1.09375 1.162109,5.25 1.415039,13.08252 0.753906,23.292969 L 30.286133,58.057129 C 31.236328,43.360352 30.055664,36.344238 28.88086,33.036133 28.458008,31.849121 27.714844,30.740234 26.670899,29.737793 l 0.002,-3.064941 c 0.720703,0.03467 1.630859,0.30664 2.498047,1.004394 0.761718,0.612305 1.444336,1.505859 2.029297,2.655273 0.121093,0.236329 0.330078,0.415528 0.582031,0.497559 0.254883,0.08301 0.527344,0.06055 0.763672,-0.06006 2.504882,-1.276367 7.221679,-3.240722 10.638672,-2.052734 1.009765,0.350586 1.842773,0.940918 2.473632,1.754395 0.292969,0.378418 0.811524,0.496093 1.243164,0.278808 2.494141,-1.267578 7.1875,-3.216797 10.600586,-2.032715 1.179688,0.40918 2.736328,1.378418 3.454102,3.674805 0.932617,2.984375 1.24707,8.493652 0.911133,15.930664 -0.01563,0.357422 0.159179,0.695801 0.460937,0.888184 0.300781,0.192871 0.682617,0.208984 0.999024,0.04492 1.441406,-0.748536 3.05957,-0.999512 4.810547,-0.744141 2.09375,0.304199 3.774414,1.70459 4.611328,3.84082 1.339843,3.425782 0.330078,7.770996 -2.572266,11.070313 -0.862305,0.97998 -2.386719,2.395996 -4.75,3.577637 z"
     id="path4"
     style="fill:#19bfbf;fill-opacity:1" /><path
     d="M 78.28418,21.710449 C 70.729492,14.153809 60.68457,9.9921875 50,9.9921875 c -10.68457,0 -20.729492,4.1616215 -28.28418,11.7182615 -15.5957028,15.599121 -15.5957028,40.979981 0,56.579102 7.554688,7.55664 17.59961,11.718261 28.28418,11.718261 10.68457,0 20.729492,-4.161621 28.28418,-11.718261 15.595703,-15.599121 15.595703,-40.979981 0,-56.579102 z M 76.870117,76.875488 C 69.692383,84.054199 60.150391,88.007812 50,88.007812 c -10.150391,0 -19.692383,-3.953613 -26.870117,-11.132324 -14.8164064,-14.819336 -14.8164064,-38.93164 0,-53.750976 C 30.307617,15.945801 39.849609,11.992188 50,11.992188 c 10.150391,0 19.692383,3.953613 26.870117,11.132324 14.816406,14.819336 14.816406,38.93164 0,53.750976 z"
     id="path6"
     style="fill:#19bfbf;fill-opacity:1" /></svg>
