<?xml version="1.0" encoding="UTF-8" standalone="no"?>
<svg
   xmlns:dc="http://purl.org/dc/elements/1.1/"
   xmlns:cc="http://creativecommons.org/ns#"
   xmlns:rdf="http://www.w3.org/1999/02/22-rdf-syntax-ns#"
   xmlns:svg="http://www.w3.org/2000/svg"
   xmlns="http://www.w3.org/2000/svg"
   xmlns:sodipodi="http://sodipodi.sourceforge.net/DTD/sodipodi-0.dtd"
   xmlns:inkscape="http://www.inkscape.org/namespaces/inkscape"
   version="1.1"
   x="0px"
   y="0px"
   viewBox="0 0 100 100"
   xml:space="preserve"
   id="svg12"
   sodipodi:docname="signo_touro.svg"
   width="100"
   height="100"
   inkscape:version="1.0.1 (3bc2e813f5, 2020-09-07, custom)"
   inkscape:export-filename="/home/aug/Desktop/icons/signo_touro_2x.png"
   inkscape:export-xdpi="192.09"
   inkscape:export-ydpi="192.09"><metadata
     id="metadata18"><rdf:RDF><cc:Work
         rdf:about=""><dc:format>image/svg+xml</dc:format><dc:type
           rdf:resource="http://purl.org/dc/dcmitype/StillImage" /><dc:title></dc:title></cc:Work></rdf:RDF></metadata><defs
     id="defs16" /><sodipodi:namedview
     pagecolor="#ffffff"
     bordercolor="#666666"
     borderopacity="1"
     objecttolerance="10"
     gridtolerance="10"
     guidetolerance="10"
     inkscape:pageopacity="0"
     inkscape:pageshadow="2"
     inkscape:window-width="1920"
     inkscape:window-height="1014"
     id="namedview14"
     showgrid="false"
     inkscape:zoom="5.72"
     inkscape:cx="50"
     inkscape:cy="62.5"
     inkscape:window-x="0"
     inkscape:window-y="0"
     inkscape:window-maximized="1"
     inkscape:current-layer="svg12"
     inkscape:document-rotation="0" /><path
     d="m 36.228516,59.525391 c 0,7.59375 6.177734,13.772461 13.771484,13.772461 7.59375,0 13.771484,-6.178711 13.771484,-13.772461 0,-7.59375 -6.177734,-13.771485 -13.771484,-13.771485 -7.59375,0 -13.771484,6.177735 -13.771484,13.771485 z M 50,47.753906 c 6.491211,0 11.771484,5.280274 11.771484,11.771485 0,6.491211 -5.280273,11.772461 -11.771484,11.772461 -6.491211,0 -11.771484,-5.28125 -11.771484,-11.772461 0,-6.491211 5.280273,-11.771485 11.771484,-11.771485 z"
     id="path2"
     style="fill:#ff6600" /><path
     d="m 25.668945,34.702148 c 3.72461,0 8.134766,2.165039 10.72461,5.264649 1.007812,1.206054 2.123047,2.539062 3.435547,3.74707 -5.360352,3.453125 -8.634766,9.388672 -8.634766,15.811523 0,10.369141 8.436523,18.805665 18.805664,18.805665 10.369141,0 18.805664,-8.436524 18.805664,-18.805665 0,-6.422851 -3.274414,-12.358398 -8.634765,-15.811523 1.3125,-1.208008 2.427734,-2.541016 3.435546,-3.74707 2.553711,-3.056641 4.398438,-5.264649 10.72461,-5.264649 0.552734,0 1,-0.447265 1,-1 v -5.033203 c 0,-0.552734 -0.447266,-1 -1,-1 -9.615235,0 -13.223633,4.31836 -16.123047,7.78711 -2.553711,3.055664 -4.399414,5.263672 -8.208008,5.263672 -3.808594,0 -5.654297,-2.208008 -8.208008,-5.263672 -3.001953,-3.591797 -9.026367,-7.78711 -16.123047,-7.78711 -0.552734,0 -1,0.447266 -1,1 v 5.033203 c 0,0.552735 0.447266,1 1,1 z m 1,-5.000976 c 5.618164,0.364258 10.811524,3.714844 13.587891,7.038086 2.682617,3.208984 4.999023,5.980469 9.743164,5.980469 4.744141,0 7.060547,-2.771485 9.743164,-5.980469 2.790039,-3.338867 5.671875,-6.78711 13.587891,-7.053711 v 3.035156 c -6.481446,0.245117 -8.705078,2.905274 -11.259766,5.962891 -1.273437,1.524414 -2.589844,3.099609 -4.231445,4.391601 -0.263672,0.208985 -0.40625,0.536133 -0.376953,0.871094 0.02832,0.334961 0.223632,0.633789 0.519531,0.793945 5.442383,2.951172 8.823242,8.616211 8.823242,14.785157 0,9.266601 -7.539062,16.805664 -16.805664,16.805664 -9.266602,0 -16.805664,-7.539063 -16.805664,-16.805664 0,-6.168946 3.380859,-11.833985 8.823242,-14.785157 0.295898,-0.160156 0.491211,-0.458984 0.519531,-0.793945 0.0293,-0.334961 -0.113281,-0.662109 -0.376953,-0.871094 C 40.518555,41.783203 39.202148,40.208008 37.928711,38.683594 35.166016,35.37793 30.75,33.074219 26.668945,32.743164 v -3.041992 z"
     id="path4"
     style="fill:#ff6600" /><path
     d="M 21.71582,78.290039 C 29.270508,85.84668 39.31543,90.007812 50,90.007812 c 10.68457,0 20.729492,-4.161132 28.28418,-11.717773 15.596679,-15.599609 15.596679,-40.980469 0,-56.580078 C 70.729492,14.15332 60.68457,9.9921875 50,9.9921875 c -10.68457,0 -20.729492,4.1611325 -28.28418,11.7177735 -15.5966794,15.599609 -15.5966794,40.980469 0,56.580078 z M 50,11.992188 c 10.150391,0 19.692383,3.953125 26.870117,11.131835 14.816406,14.819336 14.816406,38.932618 0,53.751954 C 69.692383,84.054687 60.150391,88.007812 50,88.007812 c -10.150391,0 -19.692383,-3.953125 -26.870117,-11.131835 -14.8164064,-14.819336 -14.8164064,-38.932618 0,-53.751954 C 30.307617,15.945313 39.849609,11.992188 50,11.992188 Z"
     id="path6"
     style="fill:#ff6600" /></svg>
